# xmcd
#
# Track frame offsets: 
#        151
#        13860
#        29691
#        41295
#        56234
#        72096
#        85067
#        96238
#        111418
#        131019
#        153313
#        179299
#        191861
#        205005
#        227012
#        245142
#        262517
#        287642
#
# Disc length: 4111 seconds
#
# Revision: 0
# Processed by: cddbd v1.5.2PL0 Copyright (c) Steve Scherf et al.
# Submitted via: ExactAudioCopy v1.0b3
#
DISCID=fd100d12
DTITLE=Rudy Blue Shoes - From The Roots (EAC3)
DYEAR=2008
DGENRE=Blues
TTITLE0=Boogie Dr.
TTITLE1=After Hours
TTITLE2=Boogie Woogie Cocktail
TTITLE3=Big Joe
TTITLE4=Bumble Boogie
TTITLE5=New Thunderbird
TTITLE6=Kitten on the Keys
TTITLE7=The Last Meal
TTITLE8=Gitar Daze
TTITLE9=Boogoe Woogie Stomp
TTITLE10=In "D" Groove
TTITLE11=Chicago Breakdown
TTITLE12=Dive Bomber
TTITLE13=Georgia
TTITLE14=Keep in Gwine
TTITLE15=L.B.'s Boogie
TTITLE16=On the Spot
TTITLE17=Honky Tonk Train
EXTD=
EXTT0=
EXTT1=
EXTT2=
EXTT3=
EXTT4=
EXTT5=
EXTT6=
EXTT7=
EXTT8=
EXTT9=
EXTT10=
EXTT11=
EXTT12=
EXTT13=
EXTT14=
EXTT15=
EXTT16=
EXTT17=
PLAYORDER=
